<svg width="20" height="20" viewBox="0 0 20 20" fill="none" xmlns="http://www.w3.org/2000/svg">
<g id="004-vimeo-social-logo">
<g id="logo-instagram">
<path id="Combined Shape" fill-rule="evenodd" clip-rule="evenodd" d="M5.87667 0.0596729C6.94333 0.0116031 7.28417 0 10 0C12.7158 0 13.0567 0.0116031 14.1233 0.0596729C15.7483 0.133435 17.1758 0.529597 18.3217 1.66918C19.4675 2.80877 19.8658 4.22849 19.94 5.84463C19.9883 6.90549 20 7.24446 20 9.94549C20 12.6465 19.9883 12.9855 19.94 14.0463C19.8658 15.6625 19.4675 17.0822 18.3217 18.2218C17.1758 19.3614 15.7483 19.7575 14.1233 19.8313C13.0567 19.8794 12.7158 19.891 10 19.891C7.28417 19.891 6.94333 19.8794 5.87667 19.8313C4.25167 19.7575 2.82417 19.3614 1.67833 18.2218C0.5325 17.0822 0.134167 15.6625 0.06 14.0463C0.0116667 12.9855 0 12.6465 0 9.94549C0 7.24446 0.0116667 6.90549 0.06 5.84463C0.134167 4.22849 0.5325 2.80877 1.67833 1.66918C2.82417 0.529597 4.25167 0.133435 5.87667 0.0596729ZM14.0399 1.85001C12.9858 1.80194 12.6691 1.79199 9.99911 1.79199C7.32911 1.79199 7.01245 1.80194 5.95828 1.85001C4.81995 1.90139 3.76411 2.12848 2.95161 2.93655C2.13911 3.74462 1.91078 4.7947 1.85911 5.92683C1.81078 6.97525 1.80078 7.29019 1.80078 9.94564C1.80078 12.6011 1.81078 12.916 1.85911 13.9644C1.91078 15.0966 2.13911 16.1467 2.95161 16.9547C3.76411 17.7628 4.81995 17.9899 5.95828 18.0413C7.01245 18.0893 7.32911 18.0993 9.99911 18.0993C12.6691 18.0993 12.9858 18.0893 14.0399 18.0413C15.1783 17.9899 16.2341 17.7628 17.0466 16.9547C17.8591 16.1467 18.0874 15.0966 18.1391 13.9644C18.1874 12.916 18.1974 12.6011 18.1974 9.94564C18.1974 7.29019 18.1874 6.97525 18.1391 5.92683C18.0874 4.7947 17.8591 3.74462 17.0466 2.93655C16.2341 2.12848 15.1783 1.90139 14.0399 1.85001ZM4.86328 9.9449C4.86328 7.12453 7.16245 4.83789 9.99828 4.83789C12.8341 4.83789 15.1333 7.12453 15.1333 9.9449C15.1333 12.7653 12.8341 15.0519 9.99828 15.0519C7.16245 15.0519 4.86328 12.7653 4.86328 9.9449ZM6.66406 9.94504C6.66406 11.7758 8.15656 13.2602 9.99739 13.2602C11.8382 13.2602 13.3307 11.7758 13.3307 9.94504C13.3307 8.11425 11.8382 6.62988 9.99739 6.62988C8.15656 6.62988 6.66406 8.11425 6.66406 9.94504ZM16.5367 4.63682C16.5367 5.29595 15.9995 5.83028 15.3367 5.83028C14.674 5.83028 14.1367 5.29595 14.1367 4.63682C14.1367 3.97769 14.674 3.44336 15.3367 3.44336C15.9995 3.44336 16.5367 3.97769 16.5367 4.63682Z" fill="#FCFCFC"/>
</g>
</g>
</svg>
