<svg width="26" height="26" viewBox="0 0 26 26" fill="none" xmlns="http://www.w3.org/2000/svg">
<g id="ant-design:youtube-outlined">
<path id="Vector" d="M24.375 12.9289C24.375 12.873 24.375 12.8096 24.3725 12.7359C24.3699 12.5303 24.3648 12.2992 24.3598 12.0529C24.3395 11.3445 24.3039 10.6387 24.248 9.97343C24.1719 9.05683 24.0602 8.29257 23.9078 7.71874C23.747 7.1199 23.4319 6.57375 22.9939 6.13487C22.5559 5.69599 22.0104 5.37975 21.4119 5.21777C20.6934 5.0248 19.2867 4.90546 17.3062 4.83183C16.3643 4.79628 15.3562 4.77343 14.3482 4.76074C13.9953 4.75566 13.6678 4.75312 13.3732 4.75058H12.6268C12.3322 4.75312 12.0047 4.75566 11.6518 4.76074C10.6438 4.77343 9.63574 4.79628 8.69375 4.83183C6.71328 4.908 5.3041 5.02734 4.58809 5.21777C3.98938 5.37935 3.44365 5.69545 3.0056 6.1344C2.56755 6.57334 2.25255 7.11971 2.09219 7.71874C1.9373 8.29257 1.82812 9.05683 1.75195 9.97343C1.69609 10.6387 1.66055 11.3445 1.64023 12.0529C1.63262 12.2992 1.63008 12.5303 1.62754 12.7359C1.62754 12.8096 1.625 12.873 1.625 12.9289V13.0711C1.625 13.1269 1.625 13.1904 1.62754 13.2641C1.63008 13.4697 1.63516 13.7008 1.64023 13.9471C1.66055 14.6555 1.69609 15.3613 1.75195 16.0266C1.82812 16.9432 1.93984 17.7074 2.09219 18.2812C2.41719 19.4975 3.37187 20.4572 4.58809 20.7822C5.3041 20.9752 6.71328 21.0945 8.69375 21.1682C9.63574 21.2037 10.6438 21.2266 11.6518 21.2393C12.0047 21.2443 12.3322 21.2469 12.6268 21.2494H13.3732C13.6678 21.2469 13.9953 21.2443 14.3482 21.2393C15.3562 21.2266 16.3643 21.2037 17.3062 21.1682C19.2867 21.092 20.6959 20.9727 21.4119 20.7822C22.6281 20.4572 23.5828 19.5 23.9078 18.2812C24.0627 17.7074 24.1719 16.9432 24.248 16.0266C24.3039 15.3613 24.3395 14.6555 24.3598 13.9471C24.3674 13.7008 24.3699 13.4697 24.3725 13.2641C24.3725 13.1904 24.375 13.1269 24.375 13.0711V12.9289ZM22.5469 13.0609C22.5469 13.1143 22.5469 13.1727 22.5443 13.2412C22.5418 13.4393 22.5367 13.6576 22.5316 13.8937C22.5139 14.5691 22.4783 15.2445 22.425 15.8717C22.3564 16.6893 22.26 17.3596 22.1406 17.809C21.9832 18.3955 21.5211 18.8602 20.9371 19.015C20.4039 19.1572 19.0607 19.2715 17.2352 19.34C16.3109 19.3756 15.3156 19.3984 14.3229 19.4111C13.975 19.4162 13.6525 19.4187 13.3631 19.4187H12.6369L11.6771 19.4111C10.6844 19.3984 9.6916 19.3756 8.76484 19.34C6.93926 19.2689 5.59355 19.1572 5.06289 19.015C4.47891 18.8576 4.0168 18.3955 3.85938 17.809C3.74004 17.3596 3.64355 16.6893 3.575 15.8717C3.52168 15.2445 3.48867 14.5691 3.46836 13.8937C3.46074 13.6576 3.4582 13.4367 3.45566 13.2412C3.45566 13.1727 3.45312 13.1117 3.45312 13.0609V12.9391C3.45312 12.8857 3.45313 12.8273 3.45566 12.7588C3.4582 12.5607 3.46328 12.3424 3.46836 12.1062C3.48613 11.4309 3.52168 10.7555 3.575 10.1283C3.64355 9.31074 3.74004 8.64042 3.85938 8.19101C4.0168 7.60449 4.47891 7.13984 5.06289 6.98495C5.59609 6.84277 6.93926 6.72851 8.76484 6.65995C9.68906 6.62441 10.6844 6.60156 11.6771 6.58886C12.025 6.58378 12.3475 6.58124 12.6369 6.58124H13.3631L14.3229 6.58886C15.3156 6.60156 16.3084 6.62441 17.2352 6.65995C19.0607 6.73105 20.4064 6.84277 20.9371 6.98495C21.5211 7.14238 21.9832 7.60449 22.1406 8.19101C22.26 8.64042 22.3564 9.31074 22.425 10.1283C22.4783 10.7555 22.5113 11.4309 22.5316 12.1062C22.5393 12.3424 22.5418 12.5633 22.5443 12.7588C22.5443 12.8273 22.5469 12.8883 22.5469 12.9391V13.0609ZM10.7402 16.4023L16.6309 12.9746L10.7402 9.59765V16.4023Z" fill="#FCFCFC"/>
</g>
</svg>
