<svg width="24" height="24" viewBox="0 0 24 24" fill="currentColor" stroke="currentColor" xmlns="http://www.w3.org/2000/svg">
    <path d="M6.38562 4.3927L12 10.0068L17.5853 4.42179C17.7087 4.29048 17.8573 4.18543 18.0222 4.11296C18.1872 4.04048 18.3651 4.00206 18.5453 4C18.931 4 19.301 4.15324 19.5738 4.426C19.8465 4.69876 19.9998 5.0687 19.9998 5.45444C20.0032 5.63276 19.9701 5.80989 19.9025 5.97496C19.835 6.14003 19.7345 6.28956 19.607 6.41437L13.949 11.9994L19.607 17.6572C19.8468 17.8917 19.9873 18.2093 19.9998 18.5444C19.9998 18.9302 19.8465 19.3001 19.5738 19.5729C19.301 19.8456 18.931 19.9989 18.5453 19.9989C18.3599 20.0065 18.1749 19.9756 18.0022 19.908C17.8294 19.8404 17.6726 19.7376 17.5417 19.6062L12 13.992L6.40017 19.5916C6.27727 19.7185 6.13045 19.8199 5.96818 19.8898C5.80591 19.9597 5.63141 19.9967 5.45474 19.9989C5.06898 19.9989 4.69902 19.8456 4.42625 19.5729C4.15348 19.3001 4.00024 18.9302 4.00024 18.5444C3.99685 18.3661 4.02993 18.189 4.09746 18.0239C4.16499 17.8588 4.26555 17.7093 4.39295 17.5845L10.051 11.9994L4.39295 6.34165C4.15323 6.10713 4.01266 5.78956 4.00024 5.45444C4.00024 5.0687 4.15348 4.69876 4.42625 4.426C4.69902 4.15324 5.06898 4 5.45474 4C5.80382 4.00436 6.13836 4.14544 6.38562 4.3927Z"/>
</svg>
