<svg width="20" height="20" viewBox="0 0 20 20" fill="none" xmlns="http://www.w3.org/2000/svg">
<g id="fi_9121524">
<g id="Group">
<path id="Vector" d="M17.5001 14.1667H2.50008C2.00008 14.1667 1.66675 14.5 1.66675 15C1.66675 15.5 2.00008 15.8333 2.50008 15.8333H17.5001C18.0001 15.8333 18.3334 15.5 18.3334 15C18.3334 14.5 18.0001 14.1667 17.5001 14.1667Z" fill="#C9C9C9"/>
</g>
<g id="Group_2">
<path id="Vector_2" d="M17.5001 9.16668H2.50008C2.00008 9.16668 1.66675 9.50001 1.66675 10C1.66675 10.5 2.00008 10.8333 2.50008 10.8333H17.5001C18.0001 10.8333 18.3334 10.5 18.3334 10C18.3334 9.50001 18.0001 9.16668 17.5001 9.16668Z" fill="#C9C9C9"/>
</g>
<g id="Group_3">
<path id="Vector_3" d="M17.5001 4.16668H2.50008C2.00008 4.16668 1.66675 4.50001 1.66675 5.00001C1.66675 5.50001 2.00008 5.83334 2.50008 5.83334H17.5001C18.0001 5.83334 18.3334 5.50001 18.3334 5.00001C18.3334 4.50001 18.0001 4.16668 17.5001 4.16668Z" fill="#C9C9C9"/>
</g>
</g>
</svg>
