<svg width="31" height="31" viewBox="0 0 31 31" fill="none" xmlns="http://www.w3.org/2000/svg">
<g id="Frame 4">
<g id="Group" filter="url(#filter0_i_916_282)">
<g id="Group_2">
<path id="Vector" d="M15.1167 26V25.9847H14.902V25.9693H14.7947V25.954H14.7027V25.9387H14.5953V25.9233H14.5033V25.908H14.396V25.8927H14.304V25.8773H14.258V25.862H14.1967V25.8467H14.1353V25.8313H14.074V25.816H14.0127V25.8007H13.9513V25.7853H13.89V25.77H13.8287V25.7547H13.7827V25.7393H13.7367V25.724H13.6907V25.7087H13.6447V25.6933H13.614V25.678H13.568V25.6627H13.522V25.6473H13.476V25.632H13.4453V25.6167H13.3993V25.6013H13.3533V25.586H13.3227V25.5707H13.2767V25.5553H13.2307V25.54H13.2V25.5247H13.1693V25.5093H13.1387V25.494H13.108V25.4787H13.0773V25.4633H13.0467V25.448H13.016V25.4327H12.9853V25.4173H12.9547V25.402H12.924V25.3867H12.8933V25.3713H12.8627V25.356H12.8167V25.3407H12.786V25.3253H12.7553V25.31H12.74V25.2947H12.7093V25.2793H12.6787V25.264H12.6633V25.2487H12.6327V25.2333H12.602V25.218H12.5867V25.2027H12.556V25.1873H12.5253V25.172H12.51V25.1567H12.4793V25.1413H12.4487V25.126H12.4333V25.1107H12.4027V25.0953H12.372V25.08H12.3567V25.0647H12.326V25.0493H12.3107V25.034H12.28V25.0187H12.2647V25.0033H12.234V24.988H12.2187V24.9727H12.2033V24.9573H12.1727V24.942H12.1573V24.9267H12.142V24.9113H12.1113V24.896H12.096V24.8807H12.0807V24.8653H12.05V24.85H12.0347V24.8347H12.0193V24.8193H11.9887V24.804H11.9733V24.7887H11.9427V24.7733H11.9273V24.758H11.912V24.7427H11.8813V24.7273H11.866V24.712H11.8507V24.6967H11.8353V24.6813H11.8047V24.666H11.7893V24.6507H11.774V24.6353H11.7587V24.62H11.7433V24.6047H11.728V24.5893H11.7127V24.574H11.6973V24.5587H11.682V24.5433H11.6667V24.528H11.636V24.5127H11.6207V24.4973H11.6053V24.482H11.59V24.4667H11.5747V24.4513H11.5593V24.436H11.544V24.4207H11.5287V24.4053H11.5133V24.39H11.498V24.3747H11.4673V24.3593H11.452V24.344H11.4367V24.3287H11.4213V24.3133H11.406V24.298H11.3907V24.2827H11.3753V24.252H11.36V24.2367H11.3447V24.2213H11.3293V24.206H11.314V24.1907H11.2987V24.1753H11.2833V24.16H11.268V24.1447H11.2527V24.1293H11.2373V24.114H11.222V24.0833H11.2067V24.068H11.1913V24.0527H11.176V24.0373H11.1607V24.022H11.1453V24.0067H11.13V23.9913H11.1147V23.976H11.0993V23.9607H11.084V23.9453H11.0687V23.9147H11.0533V23.8993H11.038V23.884H11.0227V23.8687H11.0073V23.838H10.992V23.8227H10.9767V23.8073H10.9613V23.7767H10.946V23.7613H10.9307V23.7307H10.9153V23.7153H10.9V23.7H10.8847V23.6693H10.8693V23.654H10.854V23.6387H10.8387V23.608H10.8233V23.5927H10.808V23.5773H10.7927V23.5467H10.7773V23.5313H10.762V23.516H10.7467V23.4853H10.7313V23.47H10.716V23.4393H10.7007V23.424H10.6853V23.3933H10.67V23.378H10.6547V23.3473H10.6393V23.3167H10.624V23.3013H10.6087V23.2707H10.5933V23.24H10.578V23.2247H10.5627V23.194H10.5473V23.1633H10.532V23.148H10.5167V23.1173H10.5013V23.0867H10.486V23.0713H10.4707V23.0407H10.4553V23.01H10.44V22.9947H10.4247V22.964H10.4093V22.9333H10.394V22.8873H10.3787V22.8567H10.3633V22.826H10.348V22.7953H10.3327V22.7647H10.3173V22.734H10.302V22.7033H10.2867V22.6727H10.2713V22.642H10.256V22.6113H10.2407V22.5807H10.2253V22.55H10.21V22.5193H10.1947V22.4733H10.1793V22.4273H10.164V22.3967H10.1487V22.3507H10.1333V22.3047H10.118V22.274H10.1027V22.228H10.0873V22.182H10.072V22.136H10.0567V22.1053H10.0413V22.0593H10.026V22.0133H10.0107V21.9673H9.99533V21.9213H9.98V21.86H9.96467V21.7987H9.94933V21.7373H9.934V21.676H9.91867V21.6147H9.90333V21.5533H9.888V21.492H9.87267V21.446H9.85733V21.354H9.842V21.2467H9.82667V21.1547H9.81133V21.0473H9.796V20.9553H9.78067V20.848H9.76533V20.6333H9.75V20.25H9.73467V20.2347H9.71933V20.204H9.704V20.1733H9.68867V20.1427H9.67333V20.112H9.658V20.0813H9.64267V20.0507H9.62733V20.02H9.612V19.9893H9.59667V19.9587H9.58133V19.928H9.566V19.8973H9.55067V19.8667H9.53533V19.836H9.52V19.8053H9.50467V19.7747H9.48933V19.744H9.474V19.7133H9.45867V19.698H9.44333V19.6673H9.428V19.6367H9.41267V19.606H9.39733V19.5753H9.382V19.5447H9.36667V19.514H9.35133V19.4833H9.336V19.4527H9.32067V19.422H9.30533V19.3913H9.29V19.3607H9.27467V19.33H9.25933V19.2993H9.244V19.2687H9.22867V19.238H9.21333V19.2073H9.198V19.1767H9.18267V19.146H9.16733V19.1153H9.152V19.0847H9.13667V19.054H9.12133V19.0233H9.106V18.9927H9.09067V18.962H9.07533V18.9313H9.06V18.9007H9.04467V18.87H9.02933V18.8393H9.014V18.8087H8.99867V18.778H8.98333V18.7473H8.968V18.7167H8.95267V18.686H8.93733V18.6553H8.922V18.6247H8.90667V18.594H8.89133V18.5633H8.876V18.5327H8.86067V18.502H8.84533V18.4713H8.83V18.4407H8.81467V18.41H8.79933V18.3793H8.784V18.3487H8.76867V18.318H8.75333V18.2873H8.738V18.2567H8.72267V18.226H8.70733V18.1953H8.692V18.1647H8.67667V18.134H8.66133V18.1033H8.646V18.0727H8.63067V18.042H8.61533V18.0113H8.6V17.9807H8.58467V17.95H8.56933V17.9193H8.554V17.8887H8.53867V17.8427H8.52333V17.812H8.508V17.7813H8.49267V17.7507H8.47733V17.72H8.462V17.6893H8.44667V17.6587H8.43133V17.628H8.416V17.5973H8.40067V17.5667H8.38533V17.536H8.37V17.5053H8.35467V17.4747H8.33933V17.444H8.324V17.4133H8.30867V17.3827H8.29333V17.352H8.278V17.3213H8.26267V17.2907H8.24733V17.26H8.232V17.214H8.21667V17.1833H8.20133V17.1527H8.186V17.122H8.17067V17.0913H8.15533V17.0607H8.14V17.03H8.12467V16.9993H8.10933V16.9687H8.094V16.938H8.07867V16.9073H8.06333V16.8767H8.048V16.846H8.03267V16.8153H8.01733V16.7693H8.002V16.7387H7.98667V16.708H7.97133V16.6773H7.956V16.6467H7.94067V16.616H7.92533V16.5853H7.91V16.5547H7.89467V16.524H7.87933V16.4933H7.864V16.4627H7.84867V16.4167H7.83333V16.386H7.818V16.3553H7.80267V16.3247H7.78733V16.294H7.772V16.2633H7.75667V16.2327H7.74133V16.202H7.726V16.1713H7.71067V16.1407H7.69533V16.0947H7.68V16.064H7.66467V16.0333H7.64933V16.0027H7.634V15.972H7.61867V15.9413H7.60333V15.9107H7.588V15.88H7.57267V15.834H7.55733V15.8033H7.542V15.7727H7.52667V15.742H7.51133V15.7113H7.496V15.6807H7.48067V15.65H7.46533V15.6193H7.45V15.5733H7.43467V15.5427H7.41933V15.512H7.404V15.4813H7.38867V15.4507H7.37333V15.42H7.358V15.3893H7.34267V15.3433H7.32733V15.3127H7.312V15.282H7.29667V15.2513H7.28133V15.2207H7.266V15.19H7.25067V15.144H7.23533V15.1133H7.22V15.0827H7.20467V15.052H7.18933V15.0213H7.174V14.9907H7.15867V14.9447H7.14333V14.914H7.128V14.8833H7.11267V14.8527H7.09733V14.822H7.082V14.7913H7.06667V14.7453H7.05133V14.7147H7.036V14.684H7.02067V14.6533H7.00533V14.6227H6.99V14.5767H6.97467V14.546H6.95933V14.5153H6.944V14.4847H6.92867V14.454H6.91333V14.408H6.898V14.3773H6.88267V14.3467H6.86733V14.316H6.852V14.2853H6.83667V14.2393H6.82133V14.2087H6.806V14.178H6.79067V14.1473H6.77533V14.1167H6.76V14.0707H6.74467V14.04H6.72933V14.0093H6.714V13.9787H6.69867V13.9327H6.68333V13.902H6.668V13.8713H6.65267V13.8407H6.63733V13.7947H6.622V13.764H6.60667V13.7333H6.59133V13.7027H6.576V13.672H6.56067V13.626H6.54533V13.5953H6.53V13.5647H6.51467V13.5187H6.49933V13.488H6.484V13.4573H6.46867V13.4267H6.45333V13.3807H6.438V13.35H6.42267V13.3193H6.40733V13.2887H6.392V13.2427H6.37667V13.212H6.36133V13.1813H6.346V13.1353H6.33067V13.1047H6.31533V13.074H6.3V13.0433H6.28467V12.9973H6.26933V12.9667H6.254V12.936H6.23867V12.89H6.22333V12.8593H6.208V12.8287H6.19267V12.7827H6.17733V12.752H6.162V12.7213H6.14667V12.6753H6.13133V12.6447H6.116V12.614H6.10067V12.568H6.08533V12.5373H6.07V12.5067H6.05467V12.4607H6.03933V12.43H6.024V12.3993H6.00867V12.3533H5.99333V12.3227H5.978V12.292H5.96267V12.246H5.94733V12.2153H5.932V12.1693H5.91667V12.1387H5.90133V12.108H5.886V12.062H5.87067V12.0313H5.85533V12.0007H5.84V11.9547H5.82467V11.924H5.80933V11.878H5.794V11.8473H5.77867V11.8167H5.76333V11.7707H5.748V11.74H5.73267V11.694H5.71733V11.6633H5.702V11.6173H5.68667V11.5867H5.67133V11.556H5.656V11.51H5.64067V11.4793H5.62533V11.4333H5.61V11.4027H5.59467V11.3567H5.57933V11.326H5.564V11.28H5.54867V11.2493H5.53333V11.2033H5.518V11.1727H5.50267V11.1267H5.48733V11.096H5.472V11.05H5.45667V11.0193H5.44133V10.9733H5.426V10.9427H5.41067V10.8967H5.39533V10.866H5.38V10.82H5.36467V10.7893H5.34933V10.7433H5.334V10.7127H5.31867V10.6667H5.30333V10.6207H5.288V10.59H5.27267V10.544H5.25733V10.5133H5.242V10.4673H5.22667V10.4213H5.21133V10.3907H5.196V10.3447H5.18067V10.314H5.16533V10.268H5.15V10.222H5.13467V10.1913H5.11933V10.1453H5.104V10.1147H5.08867V10.0687H5.07333V10.0227H5.058V9.97667H5.04267V9.946H5.02733V9.9H5.012V9.854H4.99667V9.808H4.98133V9.77733H4.966V9.73133H4.95067V9.68533H4.93533V9.65467H4.92V9.60867H4.90467V9.56267H4.88933V9.51667H4.874V9.47067H4.85867V9.44H4.84333V9.394H4.828V9.348H4.81267V9.302H4.79733V9.256H4.782V9.21H4.76667V9.164H4.75133V9.118H4.736V9.08733H4.72067V9.04133H4.70533V8.99533H4.69V8.94933H4.67467V8.90333H4.65933V8.85733H4.644V8.81133H4.62867V8.76533H4.61333V8.704H4.598V8.658H4.58267V8.612H4.56733V8.566H4.552V8.52H4.53667V8.474H4.52133V8.428H4.506V8.382H4.49067V8.32067H4.47533V8.27467H4.46V8.22867H4.44467V8.16733H4.42933V8.12133H4.414V8.07533H4.39867V8.014H4.38333V7.968H4.368V7.90667H4.35267V7.86067H4.33733V7.79933H4.322V7.738H4.30667V7.692H4.29133V7.63067H4.276V7.56933H4.26067V7.52333H4.24533V7.462H4.23V7.38533H4.21467V7.324H4.19933V7.26267H4.184V7.20133H4.16867V7.12467H4.15333V7.06333H4.138V6.98667H4.12267V6.91H4.10733V6.83333H4.092V6.74133H4.07667V6.66467H4.06133V6.57267H4.046V6.45H4.03067V6.32733H4.01533V6.20467H4V5.68333H4.01533V5.576H4.03067V5.51467H4.046V5.46867H4.06133V5.42267H4.07667V5.37667H4.092V5.31533H4.10733V5.26933H4.12267V5.254H4.138V5.22333H4.15333V5.19267H4.16867V5.162H4.184V5.13133H4.19933V5.10067H4.21467V5.07H4.23V5.03933H4.24533V5.00867H4.26067V4.99333H4.276V4.96267H4.29133V4.94733H4.30667V4.932H4.322V4.90133H4.33733V4.886H4.35267V4.85533H4.368V4.84H4.38333V4.82467H4.39867V4.794H4.414V4.77867H4.42933V4.76333H4.44467V4.73267H4.46V4.71733H4.47533V4.702H4.49067V4.68667H4.506V4.67133H4.52133V4.656H4.53667V4.64067H4.552V4.62533H4.56733V4.61H4.58267V4.59467H4.598V4.57933H4.61333V4.564H4.62867V4.54867H4.644V4.53333H4.65933V4.518H4.67467V4.50267H4.69V4.48733H4.70533V4.472H4.72067V4.45667H4.75133V4.44133H4.76667V4.426H4.782V4.41067H4.79733V4.39533H4.81267V4.38H4.84333V4.36467H4.85867V4.34933H4.874V4.334H4.88933V4.31867H4.90467V4.30333H4.93533V4.288H4.95067V4.27267H4.966V4.25733H4.99667V4.242H5.012V4.22667H5.04267V4.21133H5.058V4.196H5.08867V4.18067H5.104V4.16533H5.13467V4.15H5.15V4.13467H5.18067V4.11933H5.196V4.104H5.22667V4.08867H5.242V4.07333H5.25733V4.058H5.288V4.04267H5.31867V4.02733H5.334V4.012H5.36467V3.99667H5.39533V3.98133H5.426V3.966H5.45667V3.95067H5.472V3.93533H5.50267V3.92H5.53333V3.90467H5.564V3.88933H5.59467V3.874H5.62533V3.85867H5.64067V3.84333H5.67133V3.828H5.702V3.81267H5.748V3.79733H5.77867V3.782H5.80933V3.76667H5.84V3.75133H5.87067V3.736H5.91667V3.72067H5.94733V3.70533H5.978V3.69H6.00867V3.67467H6.03933V3.65933H6.08533V3.644H6.116V3.62867H6.162V3.61333H6.208V3.598H6.23867V3.58267H6.28467V3.56733H6.33067V3.552H6.36133V3.53667H6.40733V3.52133H6.45333V3.506H6.484V3.49067H6.53V3.47533H6.576V3.46H6.622V3.44467H6.68333V3.42933H6.72933V3.414H6.77533V3.39867H6.83667V3.38333H6.88267V3.368H6.92867V3.35267H6.99V3.33733H7.036V3.322H7.11267V3.30667H7.174V3.29133H7.23533V3.276H7.29667V3.26067H7.358V3.24533H7.41933V3.23H7.48067V3.21467H7.57267V3.19933H7.64933V3.184H7.726V3.16867H7.818V3.15333H7.89467V3.138H7.98667V3.12267H8.07867V3.10733H8.20133V3.092H8.324V3.07667H8.44667V3.06133H8.554V3.046H8.75333V3.03067H8.95267V3.01533H9.152V3H16.006V3.01533H16.2053V3.03067H16.4047V3.046H16.5887V3.06133H16.7113V3.07667H16.834V3.092H16.9567V3.10733H17.0793V3.12267H17.1867V3.138H17.2633V3.15333H17.3553V3.16867H17.4473V3.184H17.524V3.19933H17.616V3.21467H17.6927V3.23H17.7693V3.24533H17.8307V3.26067H17.9073V3.276H17.9687V3.29133H18.03V3.30667H18.1067V3.322H18.168V3.33733H18.2293V3.35267H18.2907V3.368H18.352V3.38333H18.4133V3.39867H18.4593V3.414H18.5207V3.42933H18.5667V3.44467H18.628V3.46H18.674V3.47533H18.7353V3.49067H18.7813V3.506H18.8427V3.52133H18.8887V3.53667H18.9347V3.552H18.9653V3.56733H19.0113V3.58267H19.0573V3.598H19.1033V3.61333H19.1493V3.62867H19.1953V3.644H19.2413V3.65933H19.2873V3.67467H19.3333V3.69H19.3793V3.70533H19.4253V3.72067H19.456V3.736H19.502V3.75133H19.5327V3.76667H19.5787V3.782H19.6093V3.79733H19.6553V3.81267H19.686V3.828H19.732V3.84333H19.7627V3.85867H19.8087V3.874H19.8393V3.88933H19.8853V3.90467H19.916V3.92H19.962V3.93533H19.9927V3.95067H20.0233V3.966H20.054V3.98133H20.0847V3.99667H20.1307V4.012H20.1613V4.02733H20.192V4.04267H20.2227V4.058H20.2533V4.07333H20.2993V4.08867H20.33V4.104H20.3607V4.11933H20.3913V4.13467H20.422V4.15H20.4527V4.16533H20.4833V4.18067H20.514V4.196H20.5447V4.21133H20.5753V4.22667H20.606V4.242H20.6367V4.25733H20.6673V4.27267H20.698V4.288H20.7287V4.30333H20.7593V4.31867H20.79V4.334H20.8207V4.34933H20.8513V4.36467H20.882V4.38H20.9127V4.39533H20.928V4.41067H20.9587V4.426H20.9893V4.44133H21.02V4.45667H21.0353V4.472H21.066V4.48733H21.0967V4.50267H21.1273V4.518H21.1427V4.53333H21.1733V4.54867H21.204V4.564H21.2347V4.57933H21.25V4.59467H21.2807V4.61H21.3113V4.62533H21.342V4.64067H21.3573V4.656H21.388V4.67133H21.4187V4.68667H21.434V4.702H21.4647V4.71733H21.48V4.73267H21.5107V4.748H21.5413V4.76333H21.5567V4.77867H21.5873V4.794H21.6027V4.80933H21.6333V4.82467H21.6487V4.84H21.6793V4.85533H21.71V4.87067H21.7253V4.886H21.756V4.90133H21.7713V4.91667H21.802V4.932H21.8173V4.94733H21.848V4.96267H21.8787V4.978H21.894V4.99333H21.9093V5.00867H21.94V5.024H21.9553V5.03933H21.986V5.05467H22.0013V5.07H22.0167V5.08533H22.0473V5.10067H22.0627V5.116H22.0933V5.13133H22.1087V5.14667H22.1393V5.162H22.1547V5.17733H22.17V5.19267H22.2007V5.208H22.216V5.22333H22.2467V5.23867H22.262V5.254H22.2773V5.26933H22.308V5.28467H22.3233V5.3H22.354V5.31533H22.3693V5.33067H22.3847V5.346H22.4V5.36133H22.4307V5.37667H22.446V5.392H22.4613V5.40733H22.4767V5.42267H22.5073V5.438H22.5227V5.45333H22.538V5.46867H22.5687V5.484H22.584V5.49933H22.5993V5.51467H22.6147V5.53H22.6453V5.54533H22.6607V5.56067H22.676V5.576H22.7067V5.59133H22.722V5.60667H22.7373V5.622H22.7527V5.63733H22.7833V5.65267H22.7987V5.668H22.814V5.68333H22.8293V5.69867H22.8447V5.714H22.86V5.72933H22.8907V5.74467H22.906V5.76H22.9213V5.77533H22.9367V5.79067H22.952V5.806H22.9673V5.82133H22.998V5.83667H23.0133V5.852H23.0287V5.86733H23.044V5.88267H23.0593V5.898H23.0747V5.91333H23.1053V5.92867H23.1207V5.944H23.136V5.95933H23.1513V5.97467H23.1667V5.99H23.182V6.00533H23.1973V6.02067H23.2127V6.036H23.2433V6.05133H23.2587V6.06667H23.274V6.082H23.2893V6.09733H23.3047V6.11267H23.32V6.128H23.3353V6.14333H23.3507V6.15867H23.366V6.174H23.3813V6.18933H23.3967V6.20467H23.412V6.22H23.4273V6.23533H23.4427V6.25067H23.458V6.266H23.4733V6.28133H23.4887V6.29667H23.5193V6.312H23.5347V6.32733H23.55V6.34267H23.5653V6.358H23.5807V6.37333H23.596V6.38867H23.6113V6.404H23.6267V6.41933H23.642V6.43467H23.6573V6.45H23.6727V6.46533H23.688V6.48067H23.7033V6.496H23.7187V6.52667H23.734V6.542H23.7493V6.55733H23.7647V6.57267H23.78V6.588H23.7953V6.60333H23.8107V6.61867H23.826V6.634H23.8413V6.64933H23.8567V6.66467H23.872V6.68H23.8873V6.69533H23.9027V6.71067H23.918V6.726H23.9333V6.74133H23.9487V6.75667H23.964V6.772H23.9793V6.78733H23.9947V6.80267H24.01V6.83333H24.0253V6.84867H24.0407V6.864H24.056V6.87933H24.0713V6.89467H24.0867V6.91H24.102V6.92533H24.1173V6.956H24.1327V6.97133H24.148V6.98667H24.1633V7.002H24.1787V7.01733H24.194V7.03267H24.2093V7.048H24.2247V7.07867H24.24V7.094H24.2553V7.10933H24.2707V7.12467H24.286V7.14H24.3013V7.15533H24.3167V7.17067H24.332V7.20133H24.3473V7.21667H24.3627V7.232H24.378V7.24733H24.3933V7.278H24.4087V7.29333H24.424V7.30867H24.4393V7.324H24.4547V7.35467H24.47V7.37H24.4853V7.38533H24.5007V7.40067H24.516V7.43133H24.5313V7.44667H24.5467V7.462H24.562V7.47733H24.5773V7.508H24.5927V7.52333H24.608V7.53867H24.6233V7.554H24.6387V7.58467H24.654V7.6H24.6693V7.61533H24.6847V7.63067H24.7V7.66133H24.7153V7.67667H24.7307V7.70733H24.746V7.72267H24.7613V7.738H24.7767V7.76867H24.792V7.784H24.8073V7.81467H24.8227V7.83H24.838V7.84533H24.8533V7.876H24.8687V7.89133H24.884V7.90667H24.8993V7.93733H24.9147V7.95267H24.93V7.98333H24.9453V7.99867H24.9607V8.014H24.976V8.04467H24.9913V8.06H25.0067V8.09067H25.022V8.106H25.0373V8.13667H25.0527V8.152H25.068V8.18267H25.0833V8.198H25.0987V8.22867H25.114V8.244H25.1293V8.27467H25.1447V8.29H25.16V8.32067H25.1753V8.35133H25.1907V8.36667H25.206V8.39733H25.2213V8.41267H25.2367V8.44333H25.252V8.45867H25.2673V8.48933H25.2827V8.50467H25.298V8.53533H25.3133V8.55067H25.3287V8.58133H25.344V8.612H25.3593V8.64267H25.3747V8.658H25.39V8.68867H25.4053V8.71933H25.4207V8.73467H25.436V8.76533H25.4513V8.796H25.4667V8.82667H25.482V8.842H25.4973V8.87267H25.5127V8.90333H25.528V8.91867H25.5433V8.94933H25.5587V8.98H25.574V9.01067H25.5893V9.026H25.6047V9.05667H25.62V9.08733H25.6353V9.118H25.6507V9.14867H25.666V9.17933H25.6813V9.21H25.6967V9.24067H25.712V9.27133H25.7273V9.302H25.7427V9.31733H25.758V9.348H25.7733V9.37867H25.7887V9.40933H25.804V9.44H25.8193V9.47067H25.8347V9.50133H25.85V9.532H25.8653V9.56267H25.8807V9.59333H25.896V9.624H25.9113V9.67H25.9267V9.70067H25.942V9.73133H25.9573V9.762H25.9727V9.79267H25.988V9.83867H26.0033V9.86933H26.0187V9.9H26.034V9.93067H26.0493V9.96133H26.0647V9.992H26.08V10.038H26.0953V10.0687H26.1107V10.1147H26.126V10.1453H26.1413V10.1913H26.1567V10.222H26.172V10.268H26.1873V10.2987H26.2027V10.3447H26.218V10.3753H26.2333V10.4213H26.2487V10.452H26.264V10.4827H26.2793V10.5287H26.2947V10.5747H26.31V10.6053H26.3253V10.6513H26.3407V10.6973H26.356V10.7433H26.3713V10.7893H26.3867V10.8353H26.402V10.8813H26.4173V10.9273H26.4327V10.9733H26.448V11.0193H26.4633V11.0653H26.4787V11.1113H26.494V11.1573H26.5093V11.2033H26.5247V11.2647H26.54V11.3107H26.5553V11.372H26.5707V11.418H26.586V11.4793H26.6013V11.5253H26.6167V11.5867H26.632V11.6327H26.6473V11.694H26.6627V11.7707H26.678V11.832H26.6933V11.8933H26.7087V11.9547H26.724V12.0313H26.7393V12.0927H26.7547V12.154H26.77V12.2307H26.7853V12.3073H26.8007V12.3993H26.816V12.476H26.8313V12.568H26.8467V12.6447H26.862V12.7367H26.8773V12.844H26.8927V12.9667H26.908V13.074H26.9233V13.1967H26.9387V13.3193H26.954V13.5033H26.9693V13.7027H26.9847V13.9173H27V15.098H26.9847V15.3127H26.9693V15.512H26.954V15.696H26.9387V15.8187H26.9233V15.9413H26.908V16.064H26.8927V16.1867H26.8773V16.294H26.862V16.3707H26.8467V16.4627H26.8313V16.5547H26.816V16.6313H26.8007V16.7233H26.7853V16.8H26.77V16.8767H26.7547V16.938H26.7393V17.0147H26.724V17.076H26.7087V17.1373H26.6933V17.214H26.678V17.2753H26.6627V17.3367H26.6473V17.398H26.632V17.4593H26.6167V17.5053H26.6013V17.5667H26.586V17.6127H26.5707V17.674H26.5553V17.72H26.54V17.7813H26.5247V17.8273H26.5093V17.8887H26.494V17.9347H26.4787V17.9807H26.4633V18.0267H26.448V18.0727H26.4327V18.1187H26.4173V18.1647H26.402V18.2107H26.3867V18.2567H26.3713V18.3027H26.356V18.3487H26.3407V18.3947H26.3253V18.4407H26.31V18.4867H26.2947V18.5173H26.2793V18.5633H26.264V18.594H26.2487V18.64H26.2333V18.6707H26.218V18.7167H26.2027V18.7473H26.1873V18.7933H26.172V18.824H26.1567V18.87H26.1413V18.9007H26.126V18.9467H26.1107V18.9927H26.0953V19.0233H26.08V19.054H26.0647V19.0847H26.0493V19.1153H26.034V19.1613H26.0187V19.192H26.0033V19.2227H25.988V19.2533H25.9727V19.284H25.9573V19.33H25.942V19.3607H25.9267V19.3913H25.9113V19.422H25.896V19.4527H25.8807V19.4987H25.8653V19.5293H25.85V19.56H25.8347V19.5907H25.8193V19.6213H25.804V19.652H25.7887V19.6673H25.7733V19.698H25.758V19.7287H25.7427V19.7593H25.7273V19.79H25.712V19.8207H25.6967V19.8513H25.6813V19.882H25.666V19.9127H25.6507V19.9433H25.6353V19.974H25.62V20.0047H25.6047V20.0353H25.5893V20.0507H25.574V20.0813H25.5587V20.112H25.5433V20.1427H25.528V20.158H25.5127V20.1887H25.4973V20.2193H25.482V20.2347H25.4667V20.2653H25.4513V20.296H25.436V20.3267H25.4207V20.342H25.4053V20.3727H25.39V20.4033H25.3747V20.434H25.3593V20.4493H25.344V20.48H25.3287V20.5107H25.3133V20.526H25.298V20.5567H25.2827V20.572H25.2673V20.6027H25.252V20.618H25.2367V20.6487H25.2213V20.6793H25.206V20.6947H25.1907V20.7253H25.1753V20.7407H25.16V20.7713H25.1447V20.7867H25.1293V20.8173H25.114V20.8327H25.0987V20.8633H25.0833V20.894H25.068V20.9093H25.0527V20.94H25.0373V20.9553H25.022V20.986H25.0067V21.0013H24.9913V21.0167H24.976V21.0473H24.9607V21.0627H24.9453V21.0933H24.93V21.1087H24.9147V21.124H24.8993V21.1547H24.884V21.17H24.8687V21.2007H24.8533V21.216H24.838V21.2313H24.8227V21.262H24.8073V21.2773H24.792V21.308H24.7767V21.3233H24.7613V21.3387H24.746V21.3693H24.7307V21.3847H24.7153V21.4153H24.7V21.4307H24.6847V21.446H24.6693V21.4613H24.654V21.492H24.6387V21.5073H24.6233V21.5227H24.608V21.538H24.5927V21.5687H24.5773V21.584H24.562V21.5993H24.5467V21.63H24.5313V21.6453H24.516V21.6607H24.5007V21.676H24.4853V21.7067H24.47V21.722H24.4547V21.7373H24.4393V21.7527H24.424V21.7833H24.4087V21.7987H24.3933V21.814H24.378V21.8293H24.3627V21.86H24.3473V21.8753H24.332V21.8907H24.3167V21.906H24.3013V21.9213H24.286V21.9367H24.2707V21.9673H24.2553V21.9827H24.24V21.998H24.2247V22.0133H24.2093V22.0287H24.194V22.044H24.1787V22.0593H24.1633V22.09H24.148V22.1053H24.1327V22.1207H24.1173V22.136H24.102V22.1513H24.0867V22.1667H24.0713V22.182H24.056V22.2127H24.0407V22.228H24.0253V22.2433H24.01V22.2587H23.9947V22.274H23.9793V22.2893H23.964V22.3047H23.9487V22.32H23.9333V22.3353H23.918V22.3507H23.9027V22.366H23.8873V22.3813H23.872V22.3967H23.8567V22.412H23.8413V22.4427H23.826V22.458H23.8107V22.4733H23.7953V22.4887H23.78V22.504H23.7647V22.5193H23.7493V22.5347H23.734V22.55H23.7187V22.5653H23.7033V22.5807H23.688V22.596H23.6727V22.6113H23.6573V22.6267H23.642V22.642H23.6267V22.6573H23.6113V22.6727H23.596V22.688H23.5807V22.7033H23.5653V22.7187H23.55V22.734H23.5347V22.7493H23.5193V22.7647H23.504V22.78H23.4887V22.7953H23.4733V22.8107H23.458V22.826H23.4427V22.8413H23.412V22.8567H23.3967V22.872H23.3813V22.8873H23.366V22.9027H23.3507V22.918H23.3353V22.9333H23.32V22.9487H23.3047V22.964H23.2893V22.9793H23.274V22.9947H23.2587V23.01H23.2433V23.0253H23.228V23.0407H23.2127V23.056H23.1973V23.0713H23.1667V23.0867H23.1513V23.102H23.136V23.1173H23.1207V23.1327H23.1053V23.148H23.09V23.1633H23.0593V23.1787H23.044V23.194H23.0287V23.2093H23.0133V23.2247H22.998V23.24H22.9827V23.2553H22.952V23.2707H22.9367V23.286H22.9213V23.3013H22.906V23.3167H22.8907V23.332H22.8753V23.3473H22.86V23.3627H22.8293V23.378H22.814V23.3933H22.7987V23.4087H22.7833V23.424H22.7527V23.4393H22.7373V23.4547H22.722V23.47H22.7067V23.4853H22.676V23.5007H22.6607V23.516H22.6453V23.5313H22.63V23.5467H22.5993V23.562H22.584V23.5773H22.5687V23.5927H22.538V23.608H22.5227V23.6233H22.5073V23.6387H22.492V23.654H22.4613V23.6693H22.446V23.6847H22.4307V23.7H22.4V23.7153H22.3847V23.7307H22.3693V23.746H22.3387V23.7613H22.3233V23.7767H22.308V23.792H22.2773V23.8073H22.262V23.8227H22.2313V23.838H22.216V23.8533H22.2007V23.8687H22.17V23.884H22.1547V23.8993H22.124V23.9147H22.1087V23.93H22.0933V23.9453H22.0627V23.9607H22.0473V23.976H22.0167V23.9913H22.0013V24.0067H21.986V24.022H21.9553V24.0373H21.94V24.0527H21.9093V24.068H21.894V24.0833H21.8633V24.0987H21.8327V24.114H21.8173V24.1293H21.7867V24.1447H21.7713V24.16H21.7407V24.1753H21.7253V24.1907H21.6947V24.206H21.6793V24.2213H21.6487V24.2367H21.618V24.252H21.6027V24.2673H21.572V24.2827H21.5567V24.298H21.526V24.3133H21.5107V24.3287H21.48V24.344H21.4493V24.3593H21.434V24.3747H21.4033V24.39H21.3727V24.4053H21.342V24.4207H21.3267V24.436H21.296V24.4513H21.2653V24.4667H21.2347V24.482H21.2193V24.4973H21.1887V24.5127H21.158V24.528H21.1427V24.5433H21.112V24.5587H21.0813V24.574H21.0507V24.5893H21.0353V24.6047H21.0047V24.62H20.974V24.6353H20.9433V24.6507H20.9127V24.666H20.882V24.6813H20.8513V24.6967H20.8207V24.712H20.79V24.7273H20.7593V24.7427H20.7287V24.758H20.698V24.7733H20.6673V24.7887H20.6367V24.804H20.6213V24.8193H20.5907V24.8347H20.56V24.85H20.5293V24.8653H20.4987V24.8807H20.468V24.896H20.422V24.9113H20.3913V24.9267H20.3607V24.942H20.33V24.9573H20.284V24.9727H20.2533V24.988H20.2227V25.0033H20.192V25.0187H20.1613V25.034H20.1153V25.0493H20.0847V25.0647H20.054V25.08H20.0233V25.0953H19.9927V25.1107H19.9467V25.126H19.916V25.1413H19.87V25.1567H19.824V25.172H19.7933V25.1873H19.7473V25.2027H19.7167V25.218H19.6707V25.2333H19.64V25.2487H19.594V25.264H19.5633V25.2793H19.5173V25.2947H19.4867V25.31H19.4407V25.3253H19.3947V25.3407H19.3487V25.356H19.3027V25.3713H19.2567V25.3867H19.2107V25.402H19.1647V25.4173H19.1187V25.4327H19.0727V25.448H19.0267V25.4633H18.9807V25.4787H18.9347V25.494H18.8887V25.5093H18.8273V25.5247H18.7813V25.54H18.72V25.5553H18.674V25.5707H18.6127V25.586H18.5667V25.6013H18.5053V25.6167H18.4593V25.632H18.398V25.6473H18.3367V25.6627H18.2753V25.678H18.214V25.6933H18.1373V25.7087H18.076V25.724H18.0147V25.7393H17.938V25.7547H17.8767V25.77H17.8V25.7853H17.7233V25.8007H17.6313V25.816H17.5547V25.8313H17.4627V25.8467H17.3707V25.862H17.294V25.8773H17.1867V25.8927H17.064V25.908H16.9413V25.9233H16.8187V25.9387H16.696V25.954H16.512V25.9693H16.3127V25.9847H16.098V26" fill="url(#paint0_linear_916_282)"/>
</g>

<g id="Group_4">
<path id="Vector_3" d="M15.5 8.74994H9.75C6.57439 8.74994 4 7.46271 4 5.87494V14.4999C4 17.6756 6.57433 20.2499 9.75 20.2499H15.5C18.6757 20.2499 21.25 17.6756 21.25 14.4999C21.25 11.3243 18.6757 8.74994 15.5 8.74994Z" fill="url(#paint1_linear_916_282)"/>
</g>
</g>
</g>
<defs>
<filter id="filter0_i_916_282" x="4" y="3" width="23" height="24" filterUnits="userSpaceOnUse" color-interpolation-filters="sRGB">
<feFlood flood-opacity="0" result="BackgroundImageFix"/>
<feBlend mode="normal" in="SourceGraphic" in2="BackgroundImageFix" result="shape"/>
<feColorMatrix in="SourceAlpha" type="matrix" values="0 0 0 0 0 0 0 0 0 0 0 0 0 0 0 0 0 0 127 0" result="hardAlpha"/>
<feOffset dy="1"/>
<feGaussianBlur stdDeviation="0.5"/>
<feComposite in2="hardAlpha" operator="arithmetic" k2="-1" k3="1"/>
<feColorMatrix type="matrix" values="0 0 0 0 1 0 0 0 0 1 0 0 0 0 1 0 0 0 0.35 0"/>
<feBlend mode="normal" in2="shape" result="effect1_innerShadow_916_282"/>
</filter>
<filter id="filter1_f_916_282" x="0.750244" y="0.899902" width="29.5" height="29.5" filterUnits="userSpaceOnUse" color-interpolation-filters="sRGB">
<feFlood flood-opacity="0" result="BackgroundImageFix"/>
<feBlend mode="normal" in="SourceGraphic" in2="BackgroundImageFix" result="shape"/>
<feGaussianBlur stdDeviation="4.5" result="effect1_foregroundBlur_916_282"/>
</filter>
<linearGradient id="paint0_linear_916_282" x1="3.78302" y1="16.4528" x2="29.0613" y2="16.0189" gradientUnits="userSpaceOnUse">
<stop stop-color="#4200EF"/>
<stop offset="0.442708" stop-color="#FF0300"/>
<stop offset="1" stop-color="#FF27A7"/>
</linearGradient>
<linearGradient id="paint1_linear_916_282" x1="4.54245" y1="9.29246" x2="20.2736" y2="18.6226" gradientUnits="userSpaceOnUse">
<stop stop-color="#00FDFF"/>
<stop offset="0.994819" stop-color="#2B2F82"/>
<stop offset="1" stop-color="#000CFC"/>
</linearGradient>
</defs>
</svg>
