<svg width="22" height="22" viewBox="0 0 22 22" fill="none" xmlns="http://www.w3.org/2000/svg">
<g id="ph:tiktok-logo">
<path id="Vector" d="M19.25 6.1875C18.1563 6.18636 17.1078 5.7514 16.3344 4.97806C15.5611 4.20472 15.1261 3.15617 15.125 2.0625C15.125 1.88016 15.0526 1.7053 14.9236 1.57636C14.7947 1.44743 14.6198 1.375 14.4375 1.375H11C10.8177 1.375 10.6428 1.44743 10.5139 1.57636C10.3849 1.7053 10.3125 1.88016 10.3125 2.0625V13.4062C10.3124 13.7138 10.2297 14.0157 10.0731 14.2804C9.91656 14.5451 9.69183 14.763 9.42238 14.9113C9.15293 15.0596 8.84862 15.1328 8.54121 15.1234C8.2338 15.114 7.93454 15.0223 7.67465 14.8578C7.41476 14.6934 7.20376 14.4622 7.06367 14.1884C6.92357 13.9146 6.85951 13.6082 6.87816 13.3012C6.89682 12.9942 6.99751 12.6979 7.16972 12.443C7.34194 12.1882 7.57938 11.9843 7.85727 11.8525C7.97481 11.7967 8.07412 11.7087 8.14364 11.5987C8.21316 11.4887 8.25004 11.3613 8.25 11.2312V7.5625C8.25004 7.462 8.22805 7.36272 8.18558 7.27164C8.14311 7.18056 8.08118 7.0999 8.00417 7.03534C7.92715 6.97078 7.83692 6.92389 7.73983 6.89797C7.64273 6.87204 7.54113 6.86773 7.44219 6.88531C4.37508 7.43188 2.0625 10.2352 2.0625 13.4062C2.0625 15.1384 2.75061 16.7997 3.97546 18.0245C5.20031 19.2494 6.86155 19.9375 8.59375 19.9375C10.3259 19.9375 11.9872 19.2494 13.212 18.0245C14.4369 16.7997 15.125 15.1384 15.125 13.4062V9.99367C16.3983 10.658 17.8138 11.0033 19.25 11C19.4323 11 19.6072 10.9276 19.7361 10.7986C19.8651 10.6697 19.9375 10.4948 19.9375 10.3125V6.875C19.9375 6.69266 19.8651 6.5178 19.7361 6.38886C19.6072 6.25993 19.4323 6.1875 19.25 6.1875ZM18.5625 9.59406C17.219 9.47501 15.9325 8.99552 14.8388 8.20617C14.736 8.13227 14.6148 8.08818 14.4886 8.07877C14.3623 8.06937 14.2359 8.09501 14.1233 8.15287C14.0107 8.21073 13.9162 8.29857 13.8504 8.40669C13.7845 8.51481 13.7498 8.63902 13.75 8.76562V13.4062C13.75 14.7738 13.2068 16.0853 12.2398 17.0523C11.2728 18.0193 9.96127 18.5625 8.59375 18.5625C7.22623 18.5625 5.91472 18.0193 4.94773 17.0523C3.98075 16.0853 3.4375 14.7738 3.4375 13.4062C3.4375 11.1805 4.8675 9.18414 6.875 8.45625V10.8341C6.43057 11.1311 6.07066 11.5381 5.83034 12.0155C5.59002 12.493 5.4775 13.0245 5.50373 13.5584C5.52996 14.0922 5.69406 14.6102 5.98002 15.0617C6.26599 15.5133 6.66407 15.8831 7.13547 16.135C7.60686 16.387 8.13549 16.5125 8.66983 16.4993C9.20417 16.4862 9.72599 16.3348 10.1844 16.06C10.6429 15.7852 11.0223 15.3963 11.2857 14.9312C11.5491 14.4661 11.6875 13.9408 11.6875 13.4062V2.75H13.793C13.9476 3.96093 14.4998 5.08627 15.363 5.94948C16.2262 6.81269 17.3516 7.36492 18.5625 7.51953V9.59406Z" fill="#FCFCFC"/>
</g>
</svg>
