<svg width="34" height="33" viewBox="0 0 34 33" fill="none" xmlns="http://www.w3.org/2000/svg">
    <g filter="url(#filter0_i_396_37502)">
        <path d="M16.5 30V29.98H16.22V29.96H16.08V29.94H15.96V29.92H15.82V29.9H15.7V29.88H15.56V29.86H15.44V29.84H15.38V29.82H15.3V29.8H15.22V29.78H15.14V29.76H15.06V29.74H14.98V29.72H14.9V29.7H14.82V29.68H14.76V29.66H14.7V29.64H14.64V29.62H14.58V29.6H14.54V29.58H14.48V29.56H14.42V29.54H14.36V29.52H14.32V29.5H14.26V29.48H14.2V29.46H14.16V29.44H14.1V29.42H14.04V29.4H14V29.38H13.96V29.36H13.92V29.34H13.88V29.32H13.84V29.3H13.8V29.28H13.76V29.26H13.72V29.24H13.68V29.22H13.64V29.2H13.6V29.18H13.56V29.16H13.5V29.14H13.46V29.12H13.42V29.1H13.4V29.08H13.36V29.06H13.32V29.04H13.3V29.02H13.26V29H13.22V28.98H13.2V28.96H13.16V28.94H13.12V28.92H13.1V28.9H13.06V28.88H13.02V28.86H13V28.84H12.96V28.82H12.92V28.8H12.9V28.78H12.86V28.76H12.84V28.74H12.8V28.72H12.78V28.7H12.74V28.68H12.72V28.66H12.7V28.64H12.66V28.62H12.64V28.6H12.62V28.58H12.58V28.56H12.56V28.54H12.54V28.52H12.5V28.5H12.48V28.48H12.46V28.46H12.42V28.44H12.4V28.42H12.36V28.4H12.34V28.38H12.32V28.36H12.28V28.34H12.26V28.32H12.24V28.3H12.22V28.28H12.18V28.26H12.16V28.24H12.14V28.22H12.12V28.2H12.1V28.18H12.08V28.16H12.06V28.14H12.04V28.12H12.02V28.1H12V28.08H11.96V28.06H11.94V28.04H11.92V28.02H11.9V28H11.88V27.98H11.86V27.96H11.84V27.94H11.82V27.92H11.8V27.9H11.78V27.88H11.74V27.86H11.72V27.84H11.7V27.82H11.68V27.8H11.66V27.78H11.64V27.76H11.62V27.72H11.6V27.7H11.58V27.68H11.56V27.66H11.54V27.64H11.52V27.62H11.5V27.6H11.48V27.58H11.46V27.56H11.44V27.54H11.42V27.5H11.4V27.48H11.38V27.46H11.36V27.44H11.34V27.42H11.32V27.4H11.3V27.38H11.28V27.36H11.26V27.34H11.24V27.32H11.22V27.28H11.2V27.26H11.18V27.24H11.16V27.22H11.14V27.18H11.12V27.16H11.1V27.14H11.08V27.1H11.06V27.08H11.04V27.04H11.02V27.02H11V27H10.98V26.96H10.96V26.94H10.94V26.92H10.92V26.88H10.9V26.86H10.88V26.84H10.86V26.8H10.84V26.78H10.82V26.76H10.8V26.72H10.78V26.7H10.76V26.66H10.74V26.64H10.72V26.6H10.7V26.58H10.68V26.54H10.66V26.5H10.64V26.48H10.62V26.44H10.6V26.4H10.58V26.38H10.56V26.34H10.54V26.3H10.52V26.28H10.5V26.24H10.48V26.2H10.46V26.18H10.44V26.14H10.42V26.1H10.4V26.08H10.38V26.04H10.36V26H10.34V25.94H10.32V25.9H10.3V25.86H10.28V25.82H10.26V25.78H10.24V25.74H10.22V25.7H10.2V25.66H10.18V25.62H10.16V25.58H10.14V25.54H10.12V25.5H10.1V25.46H10.08V25.4H10.06V25.34H10.04V25.3H10.02V25.24H10V25.18H9.98V25.14H9.96V25.08H9.94V25.02H9.92V24.96H9.9V24.92H9.88V24.86H9.86V24.8H9.84V24.74H9.82V24.68H9.8V24.6H9.78V24.52H9.76V24.44H9.74V24.36H9.72V24.28H9.7V24.2H9.68V24.12H9.66V24.06H9.64V23.94H9.62V23.8H9.6V23.68H9.58V23.54H9.56V23.42H9.54V23.28H9.52V23H9.5V22.5H9.48V22.48H9.46V22.44H9.44V22.4H9.42V22.36H9.4V22.32H9.38V22.28H9.36V22.24H9.34V22.2H9.32V22.16H9.3V22.12H9.28V22.08H9.26V22.04H9.24V22H9.22V21.96H9.2V21.92H9.18V21.88H9.16V21.84H9.14V21.8H9.12V21.78H9.1V21.74H9.08V21.7H9.06V21.66H9.04V21.62H9.02V21.58H9V21.54H8.98V21.5H8.96V21.46H8.94V21.42H8.92V21.38H8.9V21.34H8.88V21.3H8.86V21.26H8.84V21.22H8.82V21.18H8.8V21.14H8.78V21.1H8.76V21.06H8.74V21.02H8.72V20.98H8.7V20.94H8.68V20.9H8.66V20.86H8.64V20.82H8.62V20.78H8.6V20.74H8.58V20.7H8.56V20.66H8.54V20.62H8.52V20.58H8.5V20.54H8.48V20.5H8.46V20.46H8.44V20.42H8.42V20.38H8.4V20.34H8.38V20.3H8.36V20.26H8.34V20.22H8.32V20.18H8.3V20.14H8.28V20.1H8.26V20.06H8.24V20.02H8.22V19.98H8.2V19.94H8.18V19.9H8.16V19.86H8.14V19.82H8.12V19.78H8.1V19.74H8.08V19.7H8.06V19.66H8.04V19.62H8.02V19.58H8V19.54H7.98V19.5H7.96V19.46H7.94V19.42H7.92V19.36H7.9V19.32H7.88V19.28H7.86V19.24H7.84V19.2H7.82V19.16H7.8V19.12H7.78V19.08H7.76V19.04H7.74V19H7.72V18.96H7.7V18.92H7.68V18.88H7.66V18.84H7.64V18.8H7.62V18.76H7.6V18.72H7.58V18.68H7.56V18.64H7.54V18.6H7.52V18.54H7.5V18.5H7.48V18.46H7.46V18.42H7.44V18.38H7.42V18.34H7.4V18.3H7.38V18.26H7.36V18.22H7.34V18.18H7.32V18.14H7.3V18.1H7.28V18.06H7.26V18.02H7.24V17.96H7.22V17.92H7.2V17.88H7.18V17.84H7.16V17.8H7.14V17.76H7.12V17.72H7.1V17.68H7.08V17.64H7.06V17.6H7.04V17.56H7.02V17.5H7V17.46H6.98V17.42H6.96V17.38H6.94V17.34H6.92V17.3H6.9V17.26H6.88V17.22H6.86V17.18H6.84V17.14H6.82V17.08H6.8V17.04H6.78V17H6.76V16.96H6.74V16.92H6.72V16.88H6.7V16.84H6.68V16.8H6.66V16.74H6.64V16.7H6.62V16.66H6.6V16.62H6.58V16.58H6.56V16.54H6.54V16.5H6.52V16.46H6.5V16.4H6.48V16.36H6.46V16.32H6.44V16.28H6.42V16.24H6.4V16.2H6.38V16.16H6.36V16.1H6.34V16.06H6.32V16.02H6.3V15.98H6.28V15.94H6.26V15.9H6.24V15.84H6.22V15.8H6.2V15.76H6.18V15.72H6.16V15.68H6.14V15.64H6.12V15.58H6.1V15.54H6.08V15.5H6.06V15.46H6.04V15.42H6.02V15.38H6V15.32H5.98V15.28H5.96V15.24H5.94V15.2H5.92V15.16H5.9V15.1H5.88V15.06H5.86V15.02H5.84V14.98H5.82V14.94H5.8V14.88H5.78V14.84H5.76V14.8H5.74V14.76H5.72V14.72H5.7V14.66H5.68V14.62H5.66V14.58H5.64V14.54H5.62V14.5H5.6V14.44H5.58V14.4H5.56V14.36H5.54V14.32H5.52V14.26H5.5V14.22H5.48V14.18H5.46V14.14H5.44V14.08H5.42V14.04H5.4V14H5.38V13.96H5.36V13.92H5.34V13.86H5.32V13.82H5.3V13.78H5.28V13.72H5.26V13.68H5.24V13.64H5.22V13.6H5.2V13.54H5.18V13.5H5.16V13.46H5.14V13.42H5.12V13.36H5.1V13.32H5.08V13.28H5.06V13.22H5.04V13.18H5.02V13.14H5V13.1H4.98V13.04H4.96V13H4.94V12.96H4.92V12.9H4.9V12.86H4.88V12.82H4.86V12.76H4.84V12.72H4.82V12.68H4.8V12.62H4.78V12.58H4.76V12.54H4.74V12.48H4.72V12.44H4.7V12.4H4.68V12.34H4.66V12.3H4.64V12.26H4.62V12.2H4.6V12.16H4.58V12.12H4.56V12.06H4.54V12.02H4.52V11.96H4.5V11.92H4.48V11.88H4.46V11.82H4.44V11.78H4.42V11.74H4.4V11.68H4.38V11.64H4.36V11.58H4.34V11.54H4.32V11.5H4.3V11.44H4.28V11.4H4.26V11.34H4.24V11.3H4.22V11.24H4.2V11.2H4.18V11.16H4.16V11.1H4.14V11.06H4.12V11H4.1V10.96H4.08V10.9H4.06V10.86H4.04V10.8H4.02V10.76H4V10.7H3.98V10.66H3.96V10.6H3.94V10.56H3.92V10.5H3.9V10.46H3.88V10.4H3.86V10.36H3.84V10.3H3.82V10.26H3.8V10.2H3.78V10.16H3.76V10.1H3.74V10.06H3.72V10H3.7V9.94H3.68V9.9H3.66V9.84H3.64V9.8H3.62V9.74H3.6V9.68H3.58V9.64H3.56V9.58H3.54V9.54H3.52V9.48H3.5V9.42H3.48V9.38H3.46V9.32H3.44V9.28H3.42V9.22H3.4V9.16H3.38V9.1H3.36V9.06H3.34V9H3.32V8.94H3.3V8.88H3.28V8.84H3.26V8.78H3.24V8.72H3.22V8.68H3.2V8.62H3.18V8.56H3.16V8.5H3.14V8.44H3.12V8.4H3.1V8.34H3.08V8.28H3.06V8.22H3.04V8.16H3.02V8.1H3V8.04H2.98V7.98H2.96V7.94H2.94V7.88H2.92V7.82H2.9V7.76H2.88V7.7H2.86V7.64H2.84V7.58H2.82V7.52H2.8V7.44H2.78V7.38H2.76V7.32H2.74V7.26H2.72V7.2H2.7V7.14H2.68V7.08H2.66V7.02H2.64V6.94H2.62V6.88H2.6V6.82H2.58V6.74H2.56V6.68H2.54V6.62H2.52V6.54H2.5V6.48H2.48V6.4H2.46V6.34H2.44V6.26H2.42V6.18H2.4V6.12H2.38V6.04H2.36V5.96H2.34V5.9H2.32V5.82H2.3V5.72H2.28V5.64H2.26V5.56H2.24V5.48H2.22V5.38H2.2V5.3H2.18V5.2H2.16V5.1H2.14V5H2.12V4.88H2.1V4.78H2.08V4.66H2.06V4.5H2.04V4.34H2.02V4.18H2V3.5H2.02V3.36H2.04V3.28H2.06V3.22H2.08V3.16H2.1V3.1H2.12V3.02H2.14V2.96H2.16V2.94H2.18V2.9H2.2V2.86H2.22V2.82H2.24V2.78H2.26V2.74H2.28V2.7H2.3V2.66H2.32V2.62H2.34V2.6H2.36V2.56H2.38V2.54H2.4V2.52H2.42V2.48H2.44V2.46H2.46V2.42H2.48V2.4H2.5V2.38H2.52V2.34H2.54V2.32H2.56V2.3H2.58V2.26H2.6V2.24H2.62V2.22H2.64V2.2H2.66V2.18H2.68V2.16H2.7V2.14H2.72V2.12H2.74V2.1H2.76V2.08H2.78V2.06H2.8V2.04H2.82V2.02H2.84V2H2.86V1.98H2.88V1.96H2.9V1.94H2.92V1.92H2.94V1.9H2.98V1.88H3V1.86H3.02V1.84H3.04V1.82H3.06V1.8H3.1V1.78H3.12V1.76H3.14V1.74H3.16V1.72H3.18V1.7H3.22V1.68H3.24V1.66H3.26V1.64H3.3V1.62H3.32V1.6H3.36V1.58H3.38V1.56H3.42V1.54H3.44V1.52H3.48V1.5H3.5V1.48H3.54V1.46H3.56V1.44H3.6V1.42H3.62V1.4H3.64V1.38H3.68V1.36H3.72V1.34H3.74V1.32H3.78V1.3H3.82V1.28H3.86V1.26H3.9V1.24H3.92V1.22H3.96V1.2H4V1.18H4.04V1.16H4.08V1.14H4.12V1.12H4.14V1.1H4.18V1.08H4.22V1.06H4.28V1.04H4.32V1.02H4.36V1H4.4V0.980001H4.44V0.960001H4.5V0.940001H4.54V0.92H4.58V0.900002H4.62V0.880001H4.66V0.860001H4.72V0.84H4.76V0.820002H4.82V0.800001H4.88V0.780001H4.92V0.76H4.98V0.74H5.04V0.720001H5.08V0.700001H5.14V0.68H5.2V0.66H5.24V0.640001H5.3V0.620001H5.36V0.6H5.42V0.58H5.5V0.560001H5.56V0.540001H5.62V0.52H5.7V0.5H5.76V0.480001H5.82V0.460001H5.9V0.440001H5.96V0.42H6.06V0.400002H6.14V0.380001H6.22V0.360001H6.3V0.34H6.38V0.320002H6.46V0.300001H6.54V0.280001H6.66V0.26H6.76V0.24H6.86V0.220001H6.98V0.200001H7.08V0.18H7.2V0.16H7.32V0.140001H7.48V0.120001H7.64V0.1H7.8V0.0799999H7.94V0.0600014H8.2V0.0400009H8.46V0.0200005H8.72V0H17.66V0.0200005H17.92V0.0400009H18.18V0.0600014H18.42V0.0799999H18.58V0.1H18.74V0.120001H18.9V0.140001H19.06V0.16H19.2V0.18H19.3V0.200001H19.42V0.220001H19.54V0.24H19.64V0.26H19.76V0.280001H19.86V0.300001H19.96V0.320002H20.04V0.34H20.14V0.360001H20.22V0.380001H20.3V0.400002H20.4V0.42H20.48V0.440001H20.56V0.460001H20.64V0.480001H20.72V0.5H20.8V0.52H20.86V0.540001H20.94V0.560001H21V0.58H21.08V0.6H21.14V0.620001H21.22V0.640001H21.28V0.66H21.36V0.68H21.42V0.700001H21.48V0.720001H21.52V0.74H21.58V0.76H21.64V0.780001H21.7V0.800001H21.76V0.820002H21.82V0.84H21.88V0.860001H21.94V0.880001H22V0.900002H22.06V0.92H22.12V0.940001H22.16V0.960001H22.22V0.980001H22.26V1H22.32V1.02H22.36V1.04H22.42V1.06H22.46V1.08H22.52V1.1H22.56V1.12H22.62V1.14H22.66V1.16H22.72V1.18H22.76V1.2H22.82V1.22H22.86V1.24H22.9V1.26H22.94V1.28H22.98V1.3H23.04V1.32H23.08V1.34H23.12V1.36H23.16V1.38H23.2V1.4H23.26V1.42H23.3V1.44H23.34V1.46H23.38V1.48H23.42V1.5H23.46V1.52H23.5V1.54H23.54V1.56H23.58V1.58H23.62V1.6H23.66V1.62H23.7V1.64H23.74V1.66H23.78V1.68H23.82V1.7H23.86V1.72H23.9V1.74H23.94V1.76H23.98V1.78H24.02V1.8H24.06V1.82H24.08V1.84H24.12V1.86H24.16V1.88H24.2V1.9H24.22V1.92H24.26V1.94H24.3V1.96H24.34V1.98H24.36V2H24.4V2.02H24.44V2.04H24.48V2.06H24.5V2.08H24.54V2.1H24.58V2.12H24.62V2.14H24.64V2.16H24.68V2.18H24.72V2.2H24.74V2.22H24.78V2.24H24.8V2.26H24.84V2.28H24.88V2.3H24.9V2.32H24.94V2.34H24.96V2.36H25V2.38H25.02V2.4H25.06V2.42H25.1V2.44H25.12V2.46H25.16V2.48H25.18V2.5H25.22V2.52H25.24V2.54H25.28V2.56H25.32V2.58H25.34V2.6H25.36V2.62H25.4V2.64H25.42V2.66H25.46V2.68H25.48V2.7H25.5V2.72H25.54V2.74H25.56V2.76H25.6V2.78H25.62V2.8H25.66V2.82H25.68V2.84H25.7V2.86H25.74V2.88H25.76V2.9H25.8V2.92H25.82V2.94H25.84V2.96H25.88V2.98H25.9V3H25.94V3.02H25.96V3.04H25.98V3.06H26V3.08H26.04V3.1H26.06V3.12H26.08V3.14H26.1V3.16H26.14V3.18H26.16V3.2H26.18V3.22H26.22V3.24H26.24V3.26H26.26V3.28H26.28V3.3H26.32V3.32H26.34V3.34H26.36V3.36H26.4V3.38H26.42V3.4H26.44V3.42H26.46V3.44H26.5V3.46H26.52V3.48H26.54V3.5H26.56V3.52H26.58V3.54H26.6V3.56H26.64V3.58H26.66V3.6H26.68V3.62H26.7V3.64H26.72V3.66H26.74V3.68H26.78V3.7H26.8V3.72H26.82V3.74H26.84V3.76H26.86V3.78H26.88V3.8H26.92V3.82H26.94V3.84H26.96V3.86H26.98V3.88H27V3.9H27.02V3.92H27.04V3.94H27.06V3.96H27.1V3.98H27.12V4H27.14V4.02H27.16V4.04H27.18V4.06H27.2V4.08H27.22V4.1H27.24V4.12H27.26V4.14H27.28V4.16H27.3V4.18H27.32V4.2H27.34V4.22H27.36V4.24H27.38V4.26H27.4V4.28H27.42V4.3H27.46V4.32H27.48V4.34H27.5V4.36H27.52V4.38H27.54V4.4H27.56V4.42H27.58V4.44H27.6V4.46H27.62V4.48H27.64V4.5H27.66V4.52H27.68V4.54H27.7V4.56H27.72V4.6H27.74V4.62H27.76V4.64H27.78V4.66H27.8V4.68H27.82V4.7H27.84V4.72H27.86V4.74H27.88V4.76H27.9V4.78H27.92V4.8H27.94V4.82H27.96V4.84H27.98V4.86H28V4.88H28.02V4.9H28.04V4.92H28.06V4.94H28.08V4.96H28.1V5H28.12V5.02H28.14V5.04H28.16V5.06H28.18V5.08H28.2V5.1H28.22V5.12H28.24V5.16H28.26V5.18H28.28V5.2H28.3V5.22H28.32V5.24H28.34V5.26H28.36V5.28H28.38V5.32H28.4V5.34H28.42V5.36H28.44V5.38H28.46V5.4H28.48V5.42H28.5V5.44H28.52V5.48H28.54V5.5H28.56V5.52H28.58V5.54H28.6V5.58H28.62V5.6H28.64V5.62H28.66V5.64H28.68V5.68H28.7V5.7H28.72V5.72H28.74V5.74H28.76V5.78H28.78V5.8H28.8V5.82H28.82V5.84H28.84V5.88H28.86V5.9H28.88V5.92H28.9V5.94H28.92V5.98H28.94V6H28.96V6.02H28.98V6.04H29V6.08H29.02V6.1H29.04V6.14H29.06V6.16H29.08V6.18H29.1V6.22H29.12V6.24H29.14V6.28H29.16V6.3H29.18V6.32H29.2V6.36H29.22V6.38H29.24V6.4H29.26V6.44H29.28V6.46H29.3V6.5H29.32V6.52H29.34V6.54H29.36V6.58H29.38V6.6H29.4V6.64H29.42V6.66H29.44V6.7H29.46V6.72H29.48V6.76H29.5V6.78H29.52V6.82H29.54V6.84H29.56V6.88H29.58V6.9H29.6V6.94H29.62V6.98H29.64V7H29.66V7.04H29.68V7.06H29.7V7.1H29.72V7.12H29.74V7.16H29.76V7.18H29.78V7.22H29.8V7.24H29.82V7.28H29.84V7.32H29.86V7.36H29.88V7.38H29.9V7.42H29.92V7.46H29.94V7.48H29.96V7.52H29.98V7.56H30V7.6H30.02V7.62H30.04V7.66H30.06V7.7H30.08V7.72H30.1V7.76H30.12V7.8H30.14V7.84H30.16V7.86H30.18V7.9H30.2V7.94H30.22V7.98H30.24V8.02H30.26V8.06H30.28V8.1H30.3V8.14H30.32V8.18H30.34V8.22H30.36V8.24H30.38V8.28H30.4V8.32H30.42V8.36H30.44V8.4H30.46V8.44H30.48V8.48H30.5V8.52H30.52V8.56H30.54V8.6H30.56V8.64H30.58V8.7H30.6V8.74H30.62V8.78H30.64V8.82H30.66V8.86H30.68V8.92H30.7V8.96H30.72V9H30.74V9.04H30.76V9.08H30.78V9.12H30.8V9.18H30.82V9.22H30.84V9.28H30.86V9.32H30.88V9.38H30.9V9.42H30.92V9.48H30.94V9.52H30.96V9.58H30.98V9.62H31V9.68H31.02V9.72H31.04V9.76H31.06V9.82H31.08V9.88H31.1V9.92H31.12V9.98H31.14V10.04H31.16V10.1H31.18V10.16H31.2V10.22H31.22V10.28H31.24V10.34H31.26V10.4H31.28V10.46H31.3V10.52H31.32V10.58H31.34V10.64H31.36V10.7H31.38V10.78H31.4V10.84H31.42V10.92H31.44V10.98H31.46V11.06H31.48V11.12H31.5V11.2H31.52V11.26H31.54V11.34H31.56V11.44H31.58V11.52H31.6V11.6H31.62V11.68H31.64V11.78H31.66V11.86H31.68V11.94H31.7V12.04H31.72V12.14H31.74V12.26H31.76V12.36H31.78V12.48H31.8V12.58H31.82V12.7H31.84V12.84H31.86V13H31.88V13.14H31.9V13.3H31.92V13.46H31.94V13.7H31.96V13.96H31.98V14.24H32V15.78H31.98V16.06H31.96V16.32H31.94V16.56H31.92V16.72H31.9V16.88H31.88V17.04H31.86V17.2H31.84V17.34H31.82V17.44H31.8V17.56H31.78V17.68H31.76V17.78H31.74V17.9H31.72V18H31.7V18.1H31.68V18.18H31.66V18.28H31.64V18.36H31.62V18.44H31.6V18.54H31.58V18.62H31.56V18.7H31.54V18.78H31.52V18.86H31.5V18.92H31.48V19H31.46V19.06H31.44V19.14H31.42V19.2H31.4V19.28H31.38V19.34H31.36V19.42H31.34V19.48H31.32V19.54H31.3V19.6H31.28V19.66H31.26V19.72H31.24V19.78H31.22V19.84H31.2V19.9H31.18V19.96H31.16V20.02H31.14V20.08H31.12V20.14H31.1V20.2H31.08V20.24H31.06V20.3H31.04V20.34H31.02V20.4H31V20.44H30.98V20.5H30.96V20.54H30.94V20.6H30.92V20.64H30.9V20.7H30.88V20.74H30.86V20.8H30.84V20.86H30.82V20.9H30.8V20.94H30.78V20.98H30.76V21.02H30.74V21.08H30.72V21.12H30.7V21.16H30.68V21.2H30.66V21.24H30.64V21.3H30.62V21.34H30.6V21.38H30.58V21.42H30.56V21.46H30.54V21.52H30.52V21.56H30.5V21.6H30.48V21.64H30.46V21.68H30.44V21.72H30.42V21.74H30.4V21.78H30.38V21.82H30.36V21.86H30.34V21.9H30.32V21.94H30.3V21.98H30.28V22.02H30.26V22.06H30.24V22.1H30.22V22.14H30.2V22.18H30.18V22.22H30.16V22.24H30.14V22.28H30.12V22.32H30.1V22.36H30.08V22.38H30.06V22.42H30.04V22.46H30.02V22.48H30V22.52H29.98V22.56H29.96V22.6H29.94V22.62H29.92V22.66H29.9V22.7H29.88V22.74H29.86V22.76H29.84V22.8H29.82V22.84H29.8V22.86H29.78V22.9H29.76V22.92H29.74V22.96H29.72V22.98H29.7V23.02H29.68V23.06H29.66V23.08H29.64V23.12H29.62V23.14H29.6V23.18H29.58V23.2H29.56V23.24H29.54V23.26H29.52V23.3H29.5V23.34H29.48V23.36H29.46V23.4H29.44V23.42H29.42V23.46H29.4V23.48H29.38V23.5H29.36V23.54H29.34V23.56H29.32V23.6H29.3V23.62H29.28V23.64H29.26V23.68H29.24V23.7H29.22V23.74H29.2V23.76H29.18V23.78H29.16V23.82H29.14V23.84H29.12V23.88H29.1V23.9H29.08V23.92H29.06V23.96H29.04V23.98H29.02V24.02H29V24.04H28.98V24.06H28.96V24.08H28.94V24.12H28.92V24.14H28.9V24.16H28.88V24.18H28.86V24.22H28.84V24.24H28.82V24.26H28.8V24.3H28.78V24.32H28.76V24.34H28.74V24.36H28.72V24.4H28.7V24.42H28.68V24.44H28.66V24.46H28.64V24.5H28.62V24.52H28.6V24.54H28.58V24.56H28.56V24.6H28.54V24.62H28.52V24.64H28.5V24.66H28.48V24.68H28.46V24.7H28.44V24.74H28.42V24.76H28.4V24.78H28.38V24.8H28.36V24.82H28.34V24.84H28.32V24.86H28.3V24.9H28.28V24.92H28.26V24.94H28.24V24.96H28.22V24.98H28.2V25H28.18V25.02H28.16V25.06H28.14V25.08H28.12V25.1H28.1V25.12H28.08V25.14H28.06V25.16H28.04V25.18H28.02V25.2H28V25.22H27.98V25.24H27.96V25.26H27.94V25.28H27.92V25.3H27.9V25.32H27.88V25.36H27.86V25.38H27.84V25.4H27.82V25.42H27.8V25.44H27.78V25.46H27.76V25.48H27.74V25.5H27.72V25.52H27.7V25.54H27.68V25.56H27.66V25.58H27.64V25.6H27.62V25.62H27.6V25.64H27.58V25.66H27.56V25.68H27.54V25.7H27.52V25.72H27.5V25.74H27.48V25.76H27.46V25.78H27.44V25.8H27.42V25.82H27.4V25.84H27.38V25.86H27.36V25.88H27.32V25.9H27.3V25.92H27.28V25.94H27.26V25.96H27.24V25.98H27.22V26H27.2V26.02H27.18V26.04H27.16V26.06H27.14V26.08H27.12V26.1H27.1V26.12H27.08V26.14H27.06V26.16H27.04V26.18H27V26.2H26.98V26.22H26.96V26.24H26.94V26.26H26.92V26.28H26.9V26.3H26.86V26.32H26.84V26.34H26.82V26.36H26.8V26.38H26.78V26.4H26.76V26.42H26.72V26.44H26.7V26.46H26.68V26.48H26.66V26.5H26.64V26.52H26.62V26.54H26.6V26.56H26.56V26.58H26.54V26.6H26.52V26.62H26.5V26.64H26.46V26.66H26.44V26.68H26.42V26.7H26.4V26.72H26.36V26.74H26.34V26.76H26.32V26.78H26.3V26.8H26.26V26.82H26.24V26.84H26.22V26.86H26.18V26.88H26.16V26.9H26.14V26.92H26.12V26.94H26.08V26.96H26.06V26.98H26.04V27H26V27.02H25.98V27.04H25.96V27.06H25.92V27.08H25.9V27.1H25.88V27.12H25.84V27.14H25.82V27.16H25.78V27.18H25.76V27.2H25.74V27.22H25.7V27.24H25.68V27.26H25.64V27.28H25.62V27.3H25.6V27.32H25.56V27.34H25.54V27.36H25.5V27.38H25.48V27.4H25.46V27.42H25.42V27.44H25.4V27.46H25.36V27.48H25.34V27.5H25.3V27.52H25.26V27.54H25.24V27.56H25.2V27.58H25.18V27.6H25.14V27.62H25.12V27.64H25.08V27.66H25.06V27.68H25.02V27.7H24.98V27.72H24.96V27.74H24.92V27.76H24.9V27.78H24.86V27.8H24.84V27.82H24.8V27.84H24.76V27.86H24.74V27.88H24.7V27.9H24.66V27.92H24.62V27.94H24.6V27.96H24.56V27.98H24.52V28H24.48V28.02H24.46V28.04H24.42V28.06H24.38V28.08H24.36V28.1H24.32V28.12H24.28V28.14H24.24V28.16H24.22V28.18H24.18V28.2H24.14V28.22H24.1V28.24H24.06V28.26H24.02V28.28H23.98V28.3H23.94V28.32H23.9V28.34H23.86V28.36H23.82V28.38H23.78V28.4H23.74V28.42H23.7V28.44H23.68V28.46H23.64V28.48H23.6V28.5H23.56V28.52H23.52V28.54H23.48V28.56H23.42V28.58H23.38V28.6H23.34V28.62H23.3V28.64H23.24V28.66H23.2V28.68H23.16V28.7H23.12V28.72H23.08V28.74H23.02V28.76H22.98V28.78H22.94V28.8H22.9V28.82H22.86V28.84H22.8V28.86H22.76V28.88H22.7V28.9H22.64V28.92H22.6V28.94H22.54V28.96H22.5V28.98H22.44V29H22.4V29.02H22.34V29.04H22.3V29.06H22.24V29.08H22.2V29.1H22.14V29.12H22.08V29.14H22.02V29.16H21.96V29.18H21.9V29.2H21.84V29.22H21.78V29.24H21.72V29.26H21.66V29.28H21.6V29.3H21.54V29.32H21.48V29.34H21.42V29.36H21.34V29.38H21.28V29.4H21.2V29.42H21.14V29.44H21.06V29.46H21V29.48H20.92V29.5H20.86V29.52H20.78V29.54H20.7V29.56H20.62V29.58H20.54V29.6H20.44V29.62H20.36V29.64H20.28V29.66H20.18V29.68H20.1V29.7H20V29.72H19.9V29.74H19.78V29.76H19.68V29.78H19.56V29.8H19.44V29.82H19.34V29.84H19.2V29.86H19.04V29.88H18.88V29.9H18.72V29.92H18.56V29.94H18.32V29.96H18.06V29.98H17.78V30" fill="url(#paint0_linear_396_37502)"/>
        <g filter="url(#filter1_f_396_37502)">
            <path d="M24.5003 14.9999C24.5003 10.8577 21.1425 8.99988 17.0003 8.99988L9.50034 22.4999C9.50034 23.0135 9.55214 23.5151 9.65058 23.9999H17.0003C21.1425 23.9999 24.5003 20.0499 24.5003 14.9999Z" fill="#552129"/>
        </g>
        <path d="M17 7.49994H9.5C5.3579 7.49994 2 5.82094 2 3.74994V14.9999C2 19.1421 5.35782 22.4999 9.5 22.4999H17C21.1422 22.4999 24.5 19.1421 24.5 14.9999C24.5 10.8578 21.1422 7.49994 17 7.49994Z" fill="url(#paint1_linear_396_37502)"/>
    </g>
    <defs>
        <filter id="filter0_i_396_37502" x="2" y="0" width="30" height="31" filterUnits="userSpaceOnUse" color-interpolation-filters="sRGB">
            <feFlood flood-opacity="0" result="BackgroundImageFix"/>
            <feBlend mode="normal" in="SourceGraphic" in2="BackgroundImageFix" result="shape"/>
            <feColorMatrix in="SourceAlpha" type="matrix" values="0 0 0 0 0 0 0 0 0 0 0 0 0 0 0 0 0 0 127 0" result="hardAlpha"/>
            <feOffset dy="1"/>
            <feGaussianBlur stdDeviation="0.5"/>
            <feComposite in2="hardAlpha" operator="arithmetic" k2="-1" k3="1"/>
            <feColorMatrix type="matrix" values="0 0 0 0 1 0 0 0 0 1 0 0 0 0 1 0 0 0 0.35 0"/>
            <feBlend mode="normal" in2="shape" result="effect1_innerShadow_396_37502"/>
        </filter>
        <linearGradient id="paint0_linear_396_37502" x1="1.71698" y1="17.5472" x2="34.6887" y2="16.9811" gradientUnits="userSpaceOnUse">
            <stop stop-color="#4200EF"/>
            <stop offset="0.442708" stop-color="#FF0300"/>
            <stop offset="1" stop-color="#FF27A7"/>
        </linearGradient>
        <linearGradient id="paint1_linear_396_37502" x1="2.70755" y1="8.20757" x2="23.2264" y2="20.3774" gradientUnits="userSpaceOnUse">
            <stop stop-color="#00FDFF"/>
            <stop offset="0.994819" stop-color="#2B2F82"/>
            <stop offset="1" stop-color="#000CFC"/>
        </linearGradient>
    </defs>
</svg>
